HIERARCHY
ROOT Hips
{
	OFFSET 0.00000 0.00000 0.00000
	CHANNELS 6 Xposition Yposition Zposition Zrotation Yrotation Xrotation 
	JOINT LHipJoint
	{
		OFFSET 0 0 0
		CHANNELS 3 Zrotation Yrotation Xrotation
		JOINT LeftUpLeg
		{
			OFFSET 1.39187 -1.60231 0.69152
			CHANNELS 3 Zrotation Yrotation Xrotation
			JOINT LeftLeg
			{
				OFFSET 2.43314 -6.68499 0.00000
				CHANNELS 3 Zrotation Yrotation Xrotation
				JOINT LeftFoot
				{
					OFFSET 2.32059 -6.37578 0.00000
					CHANNELS 3 Zrotation Yrotation Xrotation
					JOINT LeftToeBase
					{
						OFFSET 0.23021 -0.63250 1.71305
						CHANNELS 3 Zrotation Yrotation Xrotation
						End Site
						{
							OFFSET 0.00000 -0.00000 0.91647
						}
					}
				}
			}
		}
	}
	JOINT RHipJoint
	{
		OFFSET 0 0 0
		CHANNELS 3 Zrotation Yrotation Xrotation
		JOINT RightUpLeg
		{
			OFFSET -1.19407 -1.60231 0.69152
			CHANNELS 3 Zrotation Yrotation Xrotation
			JOINT RightLeg
			{
				OFFSET -2.44411 -6.71513 0.00000
				CHANNELS 3 Zrotation Yrotation Xrotation
				JOINT RightFoot
				{
					OFFSET -2.31924 -6.37207 0.00000
					CHANNELS 3 Zrotation Yrotation Xrotation
					JOINT RightToeBase
					{
						OFFSET -0.19473 -0.53502 1.87724
						CHANNELS 3 Zrotation Yrotation Xrotation
						End Site
						{
							OFFSET -0.00000 -0.00000 0.98293
						}
					}
				}
			}
		}
	}
	JOINT LowerBack
	{
		OFFSET 0 0 0
		CHANNELS 3 Zrotation Yrotation Xrotation
		JOINT Spine
		{
			OFFSET -0.01120 1.87307 0.09613
			CHANNELS 3 Zrotation Yrotation Xrotation
			JOINT Spine1
			{
				OFFSET 0.01099 1.87818 0.04834
				CHANNELS 3 Zrotation Yrotation Xrotation
				JOINT Neck
				{
					OFFSET 0 0 0
					CHANNELS 3 Zrotation Yrotation Xrotation
					JOINT Neck1
					{
						OFFSET 0.01702 1.40324 -0.12579
						CHANNELS 3 Zrotation Yrotation Xrotation
						JOINT Head
						{
							OFFSET -0.04239 1.38587 -0.01614
							CHANNELS 3 Zrotation Yrotation Xrotation
							End Site
							{
								OFFSET -0.02510 1.47031 -0.00154
							}
						}
					}
				}
				JOINT LeftShoulder
				{
					OFFSET 0 0 0
					CHANNELS 3 Zrotation Yrotation Xrotation
					JOINT LeftArm
					{
						OFFSET 2.95699 0.62343 0.11653
						CHANNELS 3 Zrotation Yrotation Xrotation
						JOINT LeftForeArm
						{
							OFFSET 4.68382 -0.00000 -0.00000
							CHANNELS 3 Zrotation Yrotation Xrotation
							JOINT LeftHand
							{
								OFFSET 2.98124 -0.00000 -0.00000
								CHANNELS 3 Zrotation Yrotation Xrotation
								JOINT LeftFingerBase
								{
									OFFSET 0 0 0
									CHANNELS 3 Zrotation Yrotation Xrotation
									JOINT LeftHandIndex1
									{
										OFFSET 0.70759 -0.00000 0.00000
										CHANNELS 3 Zrotation Yrotation Xrotation
										End Site
										{
											OFFSET 0.57048 -0.00000 0.00000
										}
									}
								}
								JOINT LThumb
								{
									OFFSET 0 0 0
									CHANNELS 3 Zrotation Yrotation Xrotation
									End Site
									{
										OFFSET 0.57919 -0.00000 0.57919
									}
								}
							}
						}
					}
				}
				JOINT RightShoulder
				{
					OFFSET 0 0 0
					CHANNELS 3 Zrotation Yrotation Xrotation
					JOINT RightArm
					{
						OFFSET -2.99027 0.88714 -0.02793
						CHANNELS 3 Zrotation Yrotation Xrotation
						JOINT RightForeArm
						{
							OFFSET -4.75876 -0.00000 -0.00000
							CHANNELS 3 Zrotation Yrotation Xrotation
							JOINT RightHand
							{
								OFFSET -2.93293 -0.00000 -0.00000
								CHANNELS 3 Zrotation Yrotation Xrotation
								JOINT RightFingerBase
								{
									OFFSET 0 0 0
									CHANNELS 3 Zrotation Yrotation Xrotation
									JOINT RightHandIndex1
									{
										OFFSET -0.83175 -0.00000 0.00000
										CHANNELS 3 Zrotation Yrotation Xrotation
										End Site
										{
											OFFSET -0.67058 -0.00000 0.00000
										}
									}
								}
								JOINT RThumb
								{
									OFFSET 0 0 0
									CHANNELS 3 Zrotation Yrotation Xrotation
									End Site
									{
										OFFSET -0.68082 -0.00000 0.68082
									}
								}
							}
						}
					}
				}
			}
		}
	}
}
MOTION
Frames: 10
Frame Time: 0.0571429
0.00 0.00 0.00 174.1750 -77.1121 -139.4770 0.0000 0.0000 0.0000 -9.1264 -25.0955 -68.3066 16.3542 19.6783 79.2853 1.0113 7.5004 -23.1175 0.1092 -2.1312 -5.8682 0.0000 0.0000 0.0000 5.6794 17.6913 -71.4345 -15.2861 -19.4587 76.0970 -0.9815 -2.9398 -19.9929 -1.4593 7.6351 -21.6111 -0.9669 4.0528 5.3556 -0.6209 5.1803 -8.0307 -0.9134 2.4797 -11.6592 -5.2721 0.3759 1.9363 -0.2731 -0.7607 -22.8014 0.8952 -0.2143 -7.2984 0.0000 -0.0000 0.0000 -17.5260 11.9829 -31.5863 68.2300 -58.1312 -41.2649 -0.0000 0.0000 -12.0813 43.0882 29.0993 24.4611 -7.1250 0.0000 -0.0000 17.4566 66.5106 9.1710 0.0000 -0.0000 0.0000 10.2558 -3.7067 -29.9408 -125.1935 54.7592 -89.9421 0.0000 0.0000 9.4396 -48.6931 13.7014 -15.0855 7.1250 -0.0000 -0.0000 -13.9325 -10.1668 -11.6123
0.00 0.00 0.00 182.0210 -77.7244 -139.8240 0.0000 0.0000 0.0000 4.4342 -23.3478 -93.2753 19.5415 19.9950 88.6593 2.1253 7.7030 -31.1619 0.3228 -3.6521 -10.0998 0.0000 0.0000 0.0000 -0.6283 22.6352 -94.0579 -17.5904 -19.8602 82.9391 -1.2714 -9.2220 -26.4594 -1.3339 7.3133 -20.6468 0.1812 3.6593 14.7223 0.1773 4.9911 -4.5513 -1.1997 2.3191 -13.3492 -3.1815 2.3975 -1.0811 -6.0021 -0.3100 -32.8112 -1.4412 0.0837 -10.3475 0.0000 -0.0000 0.0000 -32.8002 -8.1678 -7.3951 100.7741 -59.5568 -69.3168 -0.0000 0.0000 -3.0640 50.8132 26.3565 28.5726 -7.1250 0.0000 -0.0000 29.8428 65.7351 15.5514 0.0000 -0.0000 0.0000 21.3378 29.1085 -14.6121 -116.9496 57.0695 -83.1094 0.0000 0.0000 3.9824 -55.9405 18.9616 -25.6716 7.1250 -0.0000 -0.0000 -16.7873 0.3942 -17.6767
0.00 0.00 0.00 205.5470 -78.6898 -152.6730 0.0000 0.0000 0.0000 26.3804 -20.9884 -104.2741 11.4700 18.1575 64.2988 0.5312 14.8316 -25.9313 0.2897 3.4611 9.5653 0.0000 0.0000 0.0000 -3.0389 27.6508 -102.9304 -7.8418 -16.0016 51.9908 -0.4564 -8.0170 -18.1307 -0.6949 5.3290 -14.8492 -1.0197 3.7942 23.7000 1.2999 4.7667 -0.0467 0.4137 2.2360 -13.5833 -2.2826 5.4508 -3.9213 -9.0892 1.3156 -45.4379 -3.2771 0.3783 -15.5303 -0.0000 -0.0000 0.0000 -16.3478 -27.3769 -11.5664 112.1238 -58.0673 -79.0354 -0.0000 -0.0000 1.1542 54.8510 28.2414 33.9033 -7.1250 0.0000 -0.0000 39.8554 69.1441 24.4057 -0.0000 -0.0000 0.0000 5.2293 26.9271 -9.5270 -125.9783 54.4941 -90.5821 0.0000 0.0000 9.7325 -57.1248 20.2070 -28.1216 7.1250 -0.0000 -0.0000 -17.0876 2.8549 -18.7548
0.00 0.00 0.00 187.2520 -82.4601 -141.4690 0.0000 0.0000 0.0000 1.6539 -25.4085 -86.1066 15.7022 19.5513 77.3431 0.5912 9.7645 -21.1892 0.0192 0.8951 2.4603 0.0000 0.0000 0.0000 -3.0221 24.5843 -89.8972 -4.3192 -12.5734 37.7920 0.3795 -14.7612 -16.1173 -1.3470 7.3476 -20.7493 1.2553 1.0679 17.0878 1.5022 1.8253 -1.6894 0.4540 0.8233 -11.5113 -1.4800 5.7917 -2.2048 -8.7829 2.6558 -41.4968 -3.2913 1.1529 -13.7007 -0.0000 0.0000 0.0000 -32.6428 -14.0796 -0.7513 121.0755 -56.0165 -86.5522 -0.0000 -0.0000 2.6825 52.3361 27.1008 30.5486 -7.1250 0.0000 -0.0000 33.3007 67.0866 18.5369 -0.0000 0.0000 0.0000 25.0830 4.0061 3.1168 -136.5952 49.9626 -98.9898 0.0000 0.0000 10.5206 -55.4065 21.6737 -28.1687 7.1250 -0.0000 -0.0000 -15.7366 3.8665 -17.4135
0.00 0.00 0.00 167.6580 -76.6762 -132.8790 0.0000 0.0000 0.0000 -28.2342 -15.6890 -45.8153 11.1297 17.9980 63.2020 1.1999 13.4330 -29.4411 0.7639 -5.5814 -15.5746 0.0000 0.0000 0.0000 4.7755 19.7733 -78.0192 -2.9426 -10.6015 30.9473 0.1370 -11.4497 -14.1684 -1.6344 8.0591 -22.8937 -1.4245 0.6814 8.8416 -0.3872 0.6948 -3.5009 0.2789 0.4005 -8.6965 -2.6570 5.9685 1.7107 -5.6141 5.4686 -30.1439 -1.8871 2.8724 -9.7280 0.0000 0.0000 0.0000 -28.7249 -15.6805 -5.8338 115.8492 -57.3182 -82.1845 -0.0000 0.0000 -1.1889 47.1686 26.9913 26.0855 -7.1250 0.0000 -0.0000 23.7358 65.3336 11.9698 0.0000 0.0000 0.0000 26.9259 -0.9906 -1.1094 -136.7568 49.8782 -99.1135 0.0000 0.0000 7.8044 -52.8423 19.1690 -23.4250 7.1250 -0.0000 -0.0000 -15.0002 -0.9335 -15.2901
0.00 0.00 0.00 156.5650 -74.9360 -131.0980 0.0000 0.0000 0.0000 -35.2838 -15.3021 -32.2347 6.5200 14.9140 47.0345 0.5389 21.2156 -33.4262 0.0006 -0.1541 -0.4235 0.0000 0.0000 0.0000 -0.4534 21.0356 -61.5169 -0.9810 -6.3048 17.6714 0.5747 -15.5042 -14.3015 -1.7707 8.3711 -23.8469 -3.2293 0.9045 5.3977 -0.9947 0.8477 -3.5606 0.6781 0.5285 -6.7864 -3.1895 5.2722 7.2359 -3.4911 5.5984 -22.6217 -1.1088 3.0518 -8.1925 -0.0000 0.0000 0.0000 -33.2511 -28.1625 -4.5730 113.8348 -57.7407 -80.4850 -0.0000 -0.0000 1.1278 47.3881 24.6870 24.4187 -7.1250 0.0000 -0.0000 23.2638 62.6636 10.2742 -0.0000 0.0000 0.0000 34.3922 1.7360 -0.5361 -140.0070 48.0657 -101.5660 0.0000 0.0000 6.0427 -52.2160 16.9821 -20.6442 7.1250 -0.0000 -0.0000 -15.2169 -4.2618 -14.5779
0.00 0.00 0.00 171.7310 -76.1431 -153.1190 0.0000 0.0000 0.0000 -30.4233 -8.7610 -24.9754 2.4256 9.7014 28.0150 0.2313 14.4741 -22.9043 0.2509 3.2231 8.9005 0.0000 0.0000 0.0000 7.5989 16.7403 -49.9377 -7.7904 -15.9629 51.8042 0.0426 -9.5404 -12.8322 -1.5419 7.8384 -22.2243 -0.8659 1.0736 -2.5480 0.9079 1.3007 -5.7583 1.4085 0.6386 -4.5539 -1.4805 4.6996 6.9435 -0.8538 6.0671 -6.5397 -0.3276 3.0777 -3.3498 0.0000 0.0000 0.0000 -41.0555 -26.7356 1.9955 126.2327 -54.4063 -90.7891 -0.0000 -0.0000 3.5181 35.9101 22.2135 15.3107 -7.1250 0.0000 -0.0000 7.8447 56.5648 2.2337 0.0000 0.0000 0.0000 44.0925 3.5468 7.6204 -142.3575 46.6095 -103.2947 0.0000 0.0000 8.3167 -42.9830 15.6628 -14.1229 7.1250 -0.0000 -0.0000 -9.9538 -9.2606 -8.3527
0.00 0.00 0.00 182.1040 -75.3894 -165.4990 0.0000 0.0000 0.0000 -26.5967 -9.3764 -26.1833 2.5470 9.9229 28.7273 -0.3557 16.7333 -20.0074 0.2923 3.4769 9.6093 0.0000 0.0000 0.0000 11.3700 16.8462 -43.5133 -12.6924 -18.6683 68.1673 0.1533 -10.2294 -11.7542 -1.5186 7.7816 -22.0528 -0.4106 1.0734 -2.8824 1.8679 1.3313 -5.2844 2.1537 0.6540 -3.8838 -0.2202 4.7784 5.1719 -0.8712 6.3244 -2.6313 -0.4219 3.1770 -1.6670 0.0000 0.0000 0.0000 -54.7561 -13.3079 15.3917 125.7868 -54.5596 -90.4261 -0.0000 -0.0000 1.1716 27.3165 22.5428 11.2005 -7.1250 0.0000 -0.0000 -1.7720 55.0125 -0.4358 0.0000 0.0000 0.0000 56.9687 1.2773 20.6009 -127.3612 54.0059 -91.7044 0.0000 0.0000 7.7278 -33.8463 11.8429 -7.8363 7.1250 -0.0000 -0.0000 -4.5863 -15.8403 -3.1706
0.00 0.00 0.00 183.8920 -75.1883 -167.6450 0.0000 0.0000 0.0000 -25.3859 -9.8409 -27.1136 2.5791 9.9803 28.9129 -0.4812 16.7009 -18.3555 0.4113 4.1169 11.4058 0.0000 0.0000 0.0000 13.3147 15.0548 -40.7458 -14.2351 -19.1838 72.9211 0.1275 -9.5102 -11.0404 -1.7847 8.4025 -23.9434 -0.6277 0.9058 -2.8181 1.8825 1.1199 -4.9832 2.2916 0.5595 -3.6019 -0.2382 4.6517 2.1648 -0.1576 6.1832 1.5086 -0.0411 3.0844 0.1044 -0.0000 0.0000 0.0000 -61.6802 -5.0267 20.2589 114.8956 -57.5234 -81.3809 -0.0000 -0.0000 4.4671 24.7548 19.8367 8.8931 -7.1250 0.0000 -0.0000 -3.7046 51.6082 -0.6036 -0.0000 0.0000 0.0000 64.7700 -0.4040 23.8366 -109.7038 58.4810 -76.9770 0.0000 0.0000 7.0291 -26.7712 10.5913 -5.2979 7.1250 -0.0000 -0.0000 0.2050 -18.1509 0.1310
0.00 0.00 0.00 182.5020 -75.3940 -166.3590 0.0000 0.0000 0.0000 -25.2160 -9.5100 -28.7354 2.6601 10.1233 29.3769 -0.4561 15.5718 -16.5107 0.2997 3.5198 9.7295 0.0000 0.0000 0.0000 14.4799 12.6527 -38.1867 -14.9894 -19.3871 75.2048 0.1433 -8.6044 -8.9015 -1.5283 7.8053 -22.1244 -1.7308 1.0163 -2.7341 1.4505 1.2534 -5.3587 2.4604 0.6632 -4.0656 -0.6877 4.1446 1.2760 1.3542 5.4142 5.3911 0.5732 2.6830 1.3900 -0.0000 -0.0000 0.0000 -67.5483 0.7164 22.7110 94.3503 -59.9284 -63.7666 -0.0000 -0.0000 6.4928 19.0246 18.2372 6.1588 -7.1250 0.0000 -0.0000 -8.8805 48.9902 -0.8802 -0.0000 -0.0000 0.0000 70.9332 -4.5308 23.9141 -87.9748 59.9845 -58.2462 0.0000 0.0000 7.7633 -22.3905 9.0659 -3.7141 7.1250 -0.0000 -0.0000 3.2506 -20.1962 1.9316
